<?xml version="1.0" encoding="utf-8"?>
<!-- Generator: Adobe Illustrator 16.0.3, SVG Export Plug-In . SVG Version: 6.00 Build 0)  -->
<!DOCTYPE svg PUBLIC "-//W3C//DTD SVG 1.1//EN" "http://www.w3.org/Graphics/SVG/1.1/DTD/svg11.dtd">
<svg version="1.1" id="Layer_1" xmlns="http://www.w3.org/2000/svg" xmlns:xlink="http://www.w3.org/1999/xlink" x="0px" y="0px"
	 width="422px" height="90px" viewBox="0 0 422 90" enable-background="new 0 0 422 90" xml:space="preserve">
<g>
	<path fill="#DE2828" d="M131.67,2.162H70.171v85.677h61.499c7.596,0,13.754-6.483,13.754-14.48V16.643
		C145.424,8.644,139.266,2.162,131.67,2.162z"/>
	<path fill="#FFFFFF" d="M16.496,2.162C8.9,2.162,2.743,8.644,2.743,16.643v56.716c0,7.997,6.157,14.48,13.753,14.48h53.676V2.162
		H16.496z"/>
	<path fill="#DE2828" d="M38.084,66.666c0-3.163,2.801-5.481,5.844-5.481l6.337,0.002c2.523,0,4.567-2.044,4.567-4.57v-6.38
		c0-2.529-2.044-4.558-4.567-4.558l-6.765-0.002c-3.163,0-5.484-2.801-5.484-5.846l0.002-6.897c0-3.161,2.803-5.498,5.849-5.498
		l6.398,0.019c2.523,0,4.567-2.013,4.567-4.534v-6.336c0-2.528-2.044-4.57-4.567-4.57h-6.337c-2.521,0-4.572,2.042-4.572,4.57v6.4
		c0,3.043-2.337,5.843-5.495,5.843h-6.733c-2.521,0-4.575,2.032-4.575,4.556v6.382c0,2.522,2.053,4.569,4.575,4.569h6.44
		c3.046,0,5.847,2.337,5.847,5.498l0.002,6.882c0,3.046-2.335,5.833-5.496,5.795h-6.794c-2.521,0-4.575,2.04-4.575,4.565v6.335
		c0,2.53,2.053,4.574,4.575,4.574h6.377c2.528,0,4.575-2.044,4.575-4.574L38.084,66.666z"/>
	<g>
		<rect x="84.953" y="20.016" fill="#FFFFFF" width="9.433" height="49.968"/>
		<path fill="#FFFFFF" d="M119.685,20.016c-5.986,0-16.018,0-16.018,0v49.968c0,0,11.078,0,17.366,0
			c6.288,0,10.93-4.457,10.93-10.127c0-5.675,0-21.879,0-28.362S125.675,20.016,119.685,20.016z M122.23,56.48
			c0,4.32-3.444,4.996-5.09,4.996s-3.893,0-3.893,0V28.388c0,0,2.096,0,4.192,0s4.791,0,4.791,4.322
			C122.23,37.032,122.23,52.158,122.23,56.48z"/>
	</g>
	<g>
		<g>
			<path fill="#FFFFFF" d="M184.782,28.685L184.782,28.685c-1.291-1.156-2.866-1.792-5.435-2.182c-0.01,0-0.01,0-3.217-0.476
				c-1.238-0.186-2.319-0.634-2.983-1.219c-0.627-0.566-0.952-1.354-0.952-2.348c0-2.458,1.885-4.041,4.792-4.041
				c2.566,0,4.384,0.638,5.893,2.076c0.138,0.134,0.353,0.128,0.485-0.004l2.739-2.69c0.064-0.068,0.102-0.159,0.101-0.254
				c-0.007-0.093-0.042-0.186-0.11-0.251c-2.476-2.311-5.161-3.296-8.984-3.296c-5.934,0-9.772,3.381-9.772,8.615
				c0,2.419,0.713,4.265,2.169,5.639c1.3,1.218,3.216,2.029,5.536,2.347l3.319,0.477c1.592,0.228,2.232,0.469,2.894,1.095
				c0.655,0.583,1,1.505,1,2.672c0,2.514-1.993,3.958-5.47,3.958c-3.101,0-5.109-0.749-6.948-2.586
				c-0.131-0.14-0.357-0.14-0.493-0.006l-2.849,2.819c-0.067,0.057-0.107,0.147-0.107,0.241c0,0.091,0.04,0.188,0.102,0.252
				c2.641,2.678,5.7,3.824,10.225,3.824c6.361,0,10.478-3.386,10.478-8.624C187.194,32.153,186.36,30.059,184.782,28.685"/>
			<path fill="#FFFFFF" d="M200.373,35.513c0,1.333-0.243,2.199-0.764,2.723c-0.922,0.885-1.87,1.043-3.51,1.043
				c-2.241,0-3.332-0.818-3.332-2.498c0-2.101,1.766-2.538,3.249-2.538h4.317h0.041V35.513z M205.115,29.341
				c0-4.732-2.985-7.235-8.622-7.235c-3.564,0-5.584,0.815-7.465,3.01c-0.124,0.147-0.113,0.362,0.024,0.485l2.651,2.495
				c0.065,0.064,0.168,0.101,0.267,0.094c0.099-0.008,0.191-0.056,0.247-0.134c1.066-1.365,2.069-1.799,4.117-1.799
				c2.871,0,4.04,0.984,4.04,3.403v1.071h-4.947c-4.488,0-7.273,2.347-7.273,6.128c0,1.814,0.593,3.437,1.681,4.562
				c1.311,1.311,3.104,1.931,5.632,1.931c2.152,0,3.581-0.454,4.918-1.559l0.075-0.063v1.025c0,0.192,0.157,0.353,0.347,0.353h3.959
				c0.19,0,0.351-0.16,0.351-0.353V29.341z"/>
			<path fill="#FFFFFF" d="M215.913,39.042c-3.186,0-3.839-2.532-3.839-6.338c0-3.781,0.654-6.293,3.839-6.293
				c3.17,0,3.805,2.407,3.805,6.293C219.717,36.51,219.075,39.042,215.913,39.042 M222.099,23.991
				c-1.197-1.197-3.075-1.885-5.153-1.885c-2.129,0-3.588,0.528-4.88,1.764l-0.072,0.068v-1.246c0-0.19-0.159-0.348-0.351-0.348
				h-3.957c-0.196,0-0.352,0.158-0.352,0.348v28.178c0,0.192,0.156,0.35,0.352,0.35h4.032c0.196,0,0.355-0.158,0.355-0.35v-9.289
				l0.067,0.058c1.275,1.185,2.766,1.708,4.841,1.708c2.056,0,3.92-0.688,5.117-1.888c2.077-2.077,2.358-5.592,2.358-8.755
				C224.457,29.404,224.168,26.064,222.099,23.991"/>
			<path fill="#FFFFFF" d="M230.945,22.691c0-0.19-0.155-0.348-0.353-0.348h-4.036c-0.202,0-0.358,0.158-0.358,0.348v20.063
				c0,0.191,0.156,0.353,0.358,0.353h4.036c0.197,0,0.353-0.161,0.353-0.353V22.691z"/>
			<path fill="#FFFFFF" d="M231.064,15.292c0-0.196-0.154-0.356-0.347-0.356h-4.284c-0.194,0-0.354,0.16-0.354,0.356v3.448
				c0,0.19,0.16,0.352,0.354,0.352h4.284c0.192,0,0.347-0.162,0.347-0.352V15.292z"/>
			<path fill="#FFFFFF" d="M237.25,30.73v-0.042c0.052-0.973,0.166-1.489,0.472-2.201c0.61-1.45,1.981-2.315,3.671-2.315
				c1.663,0,3.023,0.865,3.632,2.315c0.325,0.748,0.45,1.304,0.503,2.201v0.042H237.25z M250.251,32.114
				c0-6.082-3.477-10.008-8.859-10.008c-5.464,0-8.858,4.066-8.858,10.601c0,6.861,3.331,10.644,9.374,10.644
				c3.78,0,5.77-1.243,7.766-3.232c0.068-0.07,0.108-0.163,0.108-0.257c-0.004-0.093-0.046-0.186-0.111-0.249l-2.575-2.415
				c-0.139-0.13-0.356-0.126-0.487,0.008c-1.299,1.296-2.37,1.955-4.621,1.955c-2.87,0-4.587-1.777-4.729-4.872v-0.044h12.641
				c0.193,0,0.352-0.156,0.352-0.348V32.114z"/>
			<path fill="#FFFFFF" d="M268.964,29.937c0-2.655-0.655-4.478-2.126-5.913c-1.3-1.255-3.098-1.918-5.19-1.918
				c-1.866,0-3.566,0.597-4.918,1.727l-0.067,0.065v-1.206c0-0.19-0.16-0.351-0.354-0.351h-3.958c-0.199,0-0.351,0.161-0.351,0.351
				v20.065c0,0.19,0.152,0.351,0.351,0.351h4.034c0.196,0,0.352-0.16,0.352-0.351V30.53c0-2.579,1.422-4.123,3.801-4.123
				c2.352,0,3.69,1.5,3.69,4.123v12.226c0,0.19,0.152,0.351,0.351,0.351h4.037c0.191,0,0.35-0.16,0.35-0.351V29.937z"/>
			<path fill="#FFFFFF" d="M280.4,39.314c0-0.193-0.16-0.351-0.352-0.351h-1.668c-1.247,0-1.859-0.65-1.859-1.984V26.488h3.528
				c0.192,0,0.352-0.157,0.352-0.35v-3.086c0-0.197-0.16-0.354-0.352-0.354h-3.528v-5.737c0-0.197-0.16-0.353-0.343-0.357
				c0,0-4.031,1.097-4.042,1.097c-0.196,0-0.356,0.161-0.356,0.355v4.643h-1.941c-0.195,0-0.353,0.156-0.353,0.354v3.086
				c0,0.193,0.158,0.35,0.353,0.35h1.941v10.688c0,2.952,1.808,5.931,5.858,5.931h2.411c0.192,0,0.352-0.161,0.352-0.353V39.314z"/>
			<path fill="#DFE5E6" d="M311.511,22.731c0-0.193-0.152-0.349-0.345-0.349h-4.041c-0.199,0-0.361,0.156-0.361,0.349v20.06
				c0,0.191,0.162,0.353,0.361,0.353h4.041c0.193,0,0.345-0.161,0.345-0.353V22.731z"/>
			<path fill="#DFE5E6" d="M311.631,15.327c0-0.194-0.156-0.353-0.347-0.353H307c-0.192,0-0.349,0.159-0.349,0.353v3.449
				c0,0.191,0.157,0.352,0.349,0.352h4.284c0.191,0,0.347-0.161,0.347-0.352V15.327z"/>
			<path fill="#DFE5E6" d="M324.672,39.314c0-0.193-0.16-0.351-0.351-0.351h-1.665c-1.251,0-1.866-0.65-1.866-1.984V26.488h3.531
				c0.191,0,0.351-0.157,0.351-0.35v-3.086c0-0.197-0.16-0.354-0.351-0.354h-3.531v-5.737c0-0.197-0.154-0.353-0.341-0.357
				c0,0-4.032,1.097-4.043,1.097c-0.194,0-0.355,0.161-0.355,0.355v4.643h-1.942c-0.193,0-0.35,0.156-0.35,0.354v3.086
				c0,0.193,0.157,0.35,0.35,0.35h1.942v10.688c0,2.952,1.812,5.931,5.857,5.931h2.414c0.191,0,0.351-0.161,0.351-0.353V39.314z"/>
			<path fill="#DFE5E6" d="M299.749,43.084c-0.185,0-0.423-0.134-0.522-0.293l-10.605-17.116c-0.101-0.159-0.18-0.141-0.18,0.053
				v17.008c0,0.196-0.157,0.349-0.348,0.349h-4.718c-0.185,0-0.342-0.153-0.342-0.349V14.589c0-0.187,0.158-0.337,0.342-0.337h4.137
				c0.191,0,0.428,0.129,0.531,0.289l10.604,17.072c0.098,0.161,0.177,0.139,0.177-0.051V14.589c0-0.187,0.152-0.337,0.344-0.337
				h4.722c0.192,0,0.347,0.151,0.347,0.337v28.146c0,0.196-0.154,0.349-0.347,0.349H299.749z"/>
			<path fill="#DFE5E6" d="M351.545,27.923c-0.591-0.595-1.379-0.915-2.409-0.915c-1.019,0-1.772,0.32-2.36,0.915
				c-1.063,1.072-1.185,2.854-1.185,4.998c0,2.139,0.122,3.962,1.185,5.033c0.588,0.596,1.342,0.917,2.36,0.917
				c1.03,0,1.818-0.321,2.409-0.917c1.066-1.071,1.181-2.894,1.181-5.033C352.726,30.777,352.611,28.995,351.545,27.923
				 M355.531,40.972c-1.263,1.343-3.352,2.534-6.395,2.534c-3.029,0-5.083-1.191-6.347-2.534c-1.854-1.946-2.326-4.286-2.326-8.051
				c0-3.732,0.472-6.068,2.326-8.015c1.264-1.345,3.318-2.535,6.347-2.535c3.042,0,5.132,1.19,6.395,2.535
				c1.854,1.947,2.329,4.283,2.329,8.015C357.86,36.687,357.385,39.026,355.531,40.972"/>
			<path fill="#DFE5E6" d="M359.397,23.041c0,0.338-0.122,0.603-0.368,0.792c-0.244,0.2-0.554,0.294-0.935,0.298
				c-0.555,0.007-0.987-0.148-1.297-0.458l0.439-0.455c0.205,0.198,0.491,0.297,0.86,0.293c0.417-0.003,0.623-0.151,0.619-0.444
				c0-0.136-0.032-0.231-0.103-0.294c-0.071-0.066-0.179-0.11-0.323-0.13l-0.424-0.054c-0.629-0.083-0.942-0.409-0.948-0.985
				c0-0.323,0.108-0.584,0.327-0.785c0.22-0.198,0.52-0.302,0.893-0.304c0.48-0.004,0.862,0.131,1.154,0.406l-0.44,0.438
				c-0.167-0.164-0.407-0.242-0.725-0.24c-0.174,0-0.31,0.045-0.402,0.132c-0.096,0.083-0.141,0.193-0.141,0.324
				c0.001,0.104,0.041,0.187,0.115,0.255c0.074,0.072,0.184,0.115,0.321,0.133l0.416,0.06c0.306,0.036,0.531,0.128,0.686,0.265
				C359.297,22.462,359.39,22.713,359.397,23.041"/>
			<polygon fill="#DFE5E6" points="363.204,24.059 362.514,24.068 362.5,21.994 361.831,23.347 361.363,23.352 360.675,22.008 
				360.688,24.081 360,24.085 359.969,20.53 360.65,20.526 361.59,22.439 362.491,20.508 363.17,20.506 			"/>
			<path fill="#DFE5E6" d="M341.69,24.436l-0.031,0.01l0.016-0.016c-1.427-1.428-2.836-1.997-4.862-1.997
				c-2.117,0-3.99,0.726-5.024,1.852v-1.557c0-0.19-0.158-0.346-0.35-0.346h-4.04c-0.196,0-0.355,0.156-0.355,0.346v20.067
				c0,0.191,0.16,0.353,0.355,0.353h4.04c0.192,0,0.35-0.161,0.35-0.353V30.001c0-1.578,1.698-3.059,3.332-3.059
				c1.274,0,1.944,0.437,2.743,1.229l0.01-0.011v0.025c0.151,0.151,0.39,0.151,0.544,0.004l3.273-3.224
				C341.84,24.819,341.838,24.579,341.69,24.436"/>
		</g>
		<g>
			<path fill="#FFFFFF" d="M168.865,74.757h-1.374V56.635h1.374V74.757z"/>
			<path fill="#FFFFFF" d="M182.941,74.757h-1.299v-7.609c0-2.445-1.129-3.666-3.385-3.666c-1.085,0-1.935,0.323-2.545,0.967
				c-0.611,0.646-0.917,1.545-0.917,2.699v7.609h-1.299V62.489h1.299v1.452c0.917-1.068,2.121-1.605,3.614-1.605
				c1.409,0,2.515,0.412,3.321,1.235c0.806,0.824,1.21,1.938,1.21,3.347V74.757z"/>
			<path fill="#FFFFFF" d="M191.492,74.757h-1.121c-0.932,0-1.663-0.304-2.188-0.916c-0.51-0.562-0.764-1.324-0.764-2.291v-8.094
				h-1.679v-0.968h1.679V58.57h1.299v3.918h2.773v0.968h-2.773v8.119c0,1.356,0.627,2.036,1.882,2.036h0.892V74.757z"/>
			<path fill="#FFFFFF" d="M203.582,68.903h-8.525c0,3.242,1.332,4.862,3.995,4.862c1.272,0,2.401-0.501,3.385-1.502l0.967,0.762
				c-1.255,1.257-2.732,1.885-4.428,1.885c-3.477,0-5.217-2.097-5.217-6.286c0-1.97,0.432-3.509,1.299-4.622
				c0.866-1.11,2.069-1.667,3.614-1.667c1.526,0,2.726,0.533,3.6,1.591c0.874,1.062,1.311,2.524,1.311,4.391V68.903z M202.285,67.86
				c-0.036-0.951-0.179-1.732-0.434-2.343c-0.254-0.608-0.671-1.101-1.247-1.475c-0.578-0.373-1.221-0.561-1.934-0.561
				c-0.712,0-1.358,0.188-1.935,0.561c-0.578,0.374-0.992,0.867-1.247,1.475c-0.254,0.611-0.4,1.392-0.433,2.343H202.285z"/>
			<path fill="#FFFFFF" d="M214.984,63.508l-0.943,0.94c-0.644-0.644-1.416-0.967-2.315-0.967c-1.017,0-1.82,0.362-2.404,1.083
				c-0.586,0.72-0.879,1.599-0.879,2.633v7.56h-1.298V62.489h1.298v1.63c0.747-1.189,1.944-1.783,3.588-1.783
				C213.219,62.335,214.203,62.727,214.984,63.508z"/>
			<path fill="#FFFFFF" d="M225.191,74.757h-1.299v-1.222c-0.915,0.917-2.162,1.375-3.74,1.375c-1.699,0-2.902-0.374-3.614-1.121
				c-0.595-0.611-0.891-1.408-0.891-2.392c0-1.121,0.376-1.989,1.13-2.61c0.756-0.617,1.804-0.928,3.145-0.928h3.97v-1.375
				c0-2.001-1.154-3.003-3.461-3.003c-1.546,0-2.672,0.518-3.385,1.553l-0.942-0.814c0.899-1.255,2.341-1.885,4.327-1.885
				c3.173,0,4.76,1.342,4.76,4.023V74.757z M223.892,70.481v-1.578h-3.817c-2.088,0-3.132,0.823-3.132,2.47
				c0,1.595,1.069,2.392,3.209,2.392c1.389,0,2.409-0.315,3.053-0.942C223.663,72.382,223.892,71.601,223.892,70.481z"/>
			<path fill="#FFFFFF" d="M238.093,73.025c-0.644,0.712-1.27,1.206-1.871,1.477c-0.602,0.271-1.327,0.408-2.177,0.408
				c-1.662,0-2.978-0.562-3.943-1.68c-0.968-1.12-1.452-2.655-1.452-4.606c0-1.952,0.484-3.488,1.452-4.609
				c0.965-1.118,2.281-1.68,3.943-1.68c0.85,0,1.575,0.137,2.177,0.409c0.601,0.271,1.227,0.764,1.871,1.477l-0.89,0.814
				c-0.917-1.036-1.97-1.553-3.158-1.553c-1.425,0-2.51,0.545-3.257,1.63c-0.56,0.814-0.838,1.984-0.838,3.513
				c0,1.526,0.279,2.697,0.838,3.511c0.748,1.087,1.833,1.63,3.257,1.63c1.188,0,2.241-0.518,3.158-1.554L238.093,73.025z"/>
			<path fill="#FFFFFF" d="M245.678,74.757h-1.121c-0.932,0-1.664-0.304-2.187-0.916c-0.51-0.562-0.764-1.324-0.764-2.291v-8.094
				h-1.68v-0.968h1.68V58.57h1.299v3.918h2.773v0.968h-2.773v8.119c0,1.356,0.627,2.036,1.882,2.036h0.892V74.757z"/>
			<path fill="#FFFFFF" d="M250.361,58.238h-1.605v-1.603h1.605V58.238z M250.208,74.757h-1.299V62.489h1.299V74.757z"/>
			<path fill="#FFFFFF" d="M262.628,62.489l-4.481,12.268h-1.271l-4.481-12.268h1.425l3.691,10.742l3.692-10.742H262.628z"/>
			<path fill="#FFFFFF" d="M273.673,68.903h-8.525c0,3.242,1.332,4.862,3.996,4.862c1.271,0,2.399-0.501,3.383-1.502l0.968,0.762
				c-1.255,1.257-2.732,1.885-4.428,1.885c-3.478,0-5.218-2.097-5.218-6.286c0-1.97,0.433-3.509,1.299-4.622
				c0.866-1.11,2.069-1.667,3.614-1.667c1.526,0,2.727,0.533,3.6,1.591c0.875,1.062,1.312,2.524,1.312,4.391V68.903z M272.376,67.86
				c-0.035-0.951-0.178-1.732-0.433-2.343c-0.254-0.608-0.671-1.101-1.246-1.475c-0.579-0.373-1.223-0.561-1.935-0.561
				s-1.358,0.188-1.935,0.561c-0.578,0.374-0.992,0.867-1.246,1.475c-0.256,0.611-0.401,1.392-0.434,2.343H272.376z"/>
			<path fill="#FFFFFF" d="M295.792,65.442c0,1.866-0.068,3.224-0.203,4.072c-0.238,1.595-0.756,2.791-1.554,3.587
				c-1.103,1.104-2.614,1.655-4.529,1.655h-6.083V56.635h6.083c1.916,0,3.426,0.552,4.529,1.655
				c0.798,0.798,1.316,1.908,1.554,3.333C295.724,62.387,295.792,63.659,295.792,65.442z M294.417,65.442
				c0-1.578-0.042-2.673-0.126-3.285c-0.187-1.289-0.594-2.256-1.222-2.899c-0.915-0.935-2.214-1.4-3.894-1.4h-4.379v15.677h4.379
				c1.679,0,2.979-0.466,3.894-1.4c0.628-0.644,1.036-1.696,1.222-3.155C294.375,68.284,294.417,67.106,294.417,65.442z"/>
			<path fill="#FFFFFF" d="M308.823,68.903h-8.525c0,3.242,1.332,4.862,3.996,4.862c1.272,0,2.401-0.501,3.385-1.502l0.967,0.762
				c-1.255,1.257-2.732,1.885-4.428,1.885c-3.478,0-5.218-2.097-5.218-6.286c0-1.97,0.433-3.509,1.299-4.622
				c0.866-1.11,2.069-1.667,3.614-1.667c1.526,0,2.726,0.533,3.6,1.591c0.875,1.062,1.312,2.524,1.312,4.391V68.903z M307.526,67.86
				c-0.035-0.951-0.178-1.732-0.432-2.343c-0.255-0.608-0.671-1.101-1.247-1.475c-0.578-0.373-1.223-0.561-1.935-0.561
				s-1.358,0.188-1.934,0.561c-0.579,0.374-0.993,0.867-1.247,1.475c-0.256,0.611-0.4,1.392-0.434,2.343H307.526z"/>
			<path fill="#FFFFFF" d="M320.25,62.489l-4.48,12.268h-1.272l-4.48-12.268h1.425l3.69,10.742l3.691-10.742H320.25z"/>
			<path fill="#FFFFFF" d="M331.296,68.903h-8.525c0,3.242,1.332,4.862,3.995,4.862c1.272,0,2.401-0.501,3.385-1.502l0.967,0.762
				c-1.255,1.257-2.732,1.885-4.428,1.885c-3.477,0-5.217-2.097-5.217-6.286c0-1.97,0.434-3.509,1.299-4.622
				c0.865-1.11,2.069-1.667,3.614-1.667c1.526,0,2.725,0.533,3.6,1.591c0.874,1.062,1.311,2.524,1.311,4.391V68.903z M330,67.86
				c-0.035-0.951-0.178-1.732-0.434-2.343c-0.254-0.608-0.671-1.101-1.247-1.475c-0.578-0.373-1.221-0.561-1.934-0.561
				s-1.359,0.188-1.935,0.561c-0.578,0.374-0.992,0.867-1.247,1.475c-0.254,0.611-0.4,1.392-0.432,2.343H330z"/>
			<path fill="#FFFFFF" d="M338.881,74.757h-1.12c-1.968,0-2.952-1.061-2.952-3.181v-14.94h1.297v14.916
				c0,0.712,0.141,1.235,0.42,1.563c0.28,0.332,0.769,0.498,1.464,0.498h0.89V74.757z"/>
			<path fill="#FFFFFF" d="M350.182,68.625c0,2.271-0.51,3.918-1.526,4.936c-0.9,0.9-2.036,1.351-3.412,1.351
				s-2.51-0.45-3.411-1.351c-1.018-1.018-1.527-2.664-1.527-4.936c0-2.275,0.51-3.922,1.527-4.938
				c0.9-0.899,2.035-1.351,3.411-1.351s2.511,0.452,3.412,1.351C349.672,64.703,350.182,66.35,350.182,68.625z M348.883,68.625
				c0-2.004-0.356-3.36-1.068-4.073c-0.712-0.715-1.57-1.07-2.571-1.07c-1.001,0-1.857,0.355-2.57,1.07
				c-0.712,0.712-1.069,2.069-1.069,4.073c0,2,0.357,3.358,1.069,4.071c0.712,0.712,1.569,1.069,2.57,1.069
				c1,0,1.858-0.357,2.571-1.069C348.527,71.983,348.883,70.625,348.883,68.625z"/>
			<path fill="#FFFFFF" d="M363.29,68.625c0,2.425-0.526,4.165-1.579,5.217c-0.712,0.713-1.712,1.069-3.003,1.069
				c-1.562,0-2.773-0.578-3.639-1.732v7.432h-1.299V62.489h1.299v1.578c0.866-1.153,2.078-1.731,3.639-1.731
				c1.291,0,2.291,0.357,3.003,1.07C362.763,64.458,363.29,66.196,363.29,68.625z M361.991,68.625c0-1.562-0.204-2.741-0.611-3.538
				c-0.542-1.071-1.494-1.605-2.85-1.605c-1.356,0-2.308,0.534-2.85,1.605c-0.409,0.797-0.611,1.976-0.611,3.538
				c0,1.559,0.203,2.731,0.611,3.511c0.542,1.087,1.494,1.63,2.85,1.63c1.356,0,2.307-0.542,2.85-1.63
				C361.787,71.356,361.991,70.183,361.991,68.625z"/>
			<path fill="#FFFFFF" d="M384.439,74.757h-1.272v-7.609c0-2.445-1.128-3.666-3.386-3.666c-1.053,0-1.891,0.311-2.519,0.93
				c-0.627,0.619-0.942,1.454-0.942,2.506v7.84h-1.299v-7.609c0-2.445-1.129-3.666-3.385-3.666c-1.085,0-1.934,0.323-2.545,0.967
				c-0.611,0.646-0.917,1.545-0.917,2.699v7.609h-1.298V62.489h1.298v1.452c0.917-1.068,2.13-1.605,3.64-1.605
				c1.867,0,3.181,0.748,3.945,2.241c0.949-1.494,2.34-2.241,4.174-2.241c1.393,0,2.49,0.412,3.296,1.235
				c0.805,0.824,1.209,1.938,1.209,3.347V74.757z"/>
			<path fill="#FFFFFF" d="M397.699,68.903h-8.525c0,3.242,1.332,4.862,3.995,4.862c1.272,0,2.401-0.501,3.385-1.502l0.968,0.762
				c-1.256,1.257-2.732,1.885-4.429,1.885c-3.477,0-5.217-2.097-5.217-6.286c0-1.97,0.433-3.509,1.299-4.622
				c0.866-1.11,2.069-1.667,3.614-1.667c1.526,0,2.725,0.533,3.6,1.591c0.875,1.062,1.311,2.524,1.311,4.391V68.903z M396.403,67.86
				c-0.035-0.951-0.178-1.732-0.433-2.343c-0.254-0.608-0.671-1.101-1.246-1.475c-0.579-0.373-1.223-0.561-1.935-0.561
				s-1.358,0.188-1.935,0.561c-0.577,0.374-0.992,0.867-1.247,1.475c-0.254,0.611-0.399,1.392-0.432,2.343H396.403z"/>
			<path fill="#FFFFFF" d="M410.705,74.757h-1.299v-7.609c0-2.445-1.129-3.666-3.385-3.666c-1.086,0-1.934,0.323-2.545,0.967
				c-0.611,0.646-0.916,1.545-0.916,2.699v7.609h-1.299V62.489h1.299v1.452c0.916-1.068,2.121-1.605,3.615-1.605
				c1.408,0,2.514,0.412,3.318,1.235c0.807,0.824,1.211,1.938,1.211,3.347V74.757z"/>
			<path fill="#FFFFFF" d="M419.258,74.757h-1.121c-0.932,0-1.662-0.304-2.188-0.916c-0.51-0.562-0.764-1.324-0.764-2.291v-8.094
				h-1.68v-0.968h1.68V58.57h1.299v3.918h2.773v0.968h-2.773v8.119c0,1.356,0.627,2.036,1.883,2.036h0.891V74.757z"/>
		</g>
	</g>
</g>
</svg>
