<?xml version="1.0" encoding="utf-8"?>
<!-- Generator: Adobe Illustrator 16.0.3, SVG Export Plug-In . SVG Version: 6.00 Build 0)  -->
<!DOCTYPE svg PUBLIC "-//W3C//DTD SVG 1.1//EN" "http://www.w3.org/Graphics/SVG/1.1/DTD/svg11.dtd">
<svg version="1.1" id="Layer_1" xmlns="http://www.w3.org/2000/svg" xmlns:xlink="http://www.w3.org/1999/xlink" x="0px" y="0px"
	 width="40px" height="24px" viewBox="0 0 40 24" enable-background="new 0 0 40 24" xml:space="preserve">
<g>
	<path fill="#DE2828" d="M35.296,0.621H18.961v22.758h16.335c2.018,0,3.653-1.723,3.653-3.847V4.468
		C38.949,2.343,37.313,0.621,35.296,0.621z"/>
	<path fill="#FFFFFF" d="M4.703,0.621c-2.018,0-3.652,1.722-3.652,3.847v15.064c0,2.124,1.635,3.847,3.652,3.847h14.258V0.621H4.703
		z"/>
	<path fill="#DE2828" d="M10.438,17.755c0-0.84,0.745-1.457,1.553-1.457l1.684,0.001c0.67,0,1.213-0.543,1.213-1.214v-1.694
		c0-0.672-0.543-1.21-1.213-1.21l-1.797,0c-0.841,0-1.457-0.744-1.457-1.553l0.001-1.833c0-0.839,0.744-1.46,1.553-1.46l1.7,0.005
		c0.67,0,1.213-0.534,1.213-1.204V4.452c0-0.671-0.543-1.214-1.213-1.214H11.99c-0.67,0-1.215,0.542-1.215,1.214v1.7
		c0,0.808-0.62,1.552-1.459,1.552H7.527c-0.669,0-1.215,0.54-1.215,1.211v1.695c0,0.67,0.546,1.214,1.215,1.214h1.711
		c0.81,0,1.553,0.621,1.553,1.46l0.001,1.828c0,0.809-0.62,1.549-1.46,1.539H7.527c-0.669,0-1.215,0.542-1.215,1.213v1.683
		c0,0.672,0.546,1.215,1.215,1.215h1.694c0.672,0,1.215-0.543,1.215-1.215L10.438,17.755z"/>
	<g>
		<rect x="22.887" y="5.364" fill="#FFFFFF" width="2.506" height="13.272"/>
		<path fill="#FFFFFF" d="M32.112,5.364c-1.59,0-4.255,0-4.255,0v13.272c0,0,2.943,0,4.613,0c1.671,0,2.903-1.184,2.903-2.69
			c0-1.508,0-5.812,0-7.533C35.374,6.691,33.704,5.364,32.112,5.364z M32.789,15.049c0,1.147-0.915,1.327-1.352,1.327
			c-0.438,0-1.035,0-1.035,0V7.587c0,0,0.558,0,1.114,0s1.272,0,1.272,1.148C32.789,9.883,32.789,13.901,32.789,15.049z"/>
	</g>
</g>
</svg>
