<?xml version="1.0" encoding="utf-8"?>
<!-- Generator: Adobe Illustrator 16.0.3, SVG Export Plug-In . SVG Version: 6.00 Build 0)  -->
<!DOCTYPE svg PUBLIC "-//W3C//DTD SVG 1.1//EN" "http://www.w3.org/Graphics/SVG/1.1/DTD/svg11.dtd">
<svg version="1.1" id="Layer_1" xmlns="http://www.w3.org/2000/svg" xmlns:xlink="http://www.w3.org/1999/xlink" x="0px" y="0px"
	 width="148px" height="90px" viewBox="0 0 148 90" enable-background="new 0 0 148 90" xml:space="preserve">
<g>
	<path fill="#DE2828" d="M131.671,2.162H70.173v85.677h61.498c7.596,0,13.754-6.483,13.754-14.48V16.643
		C145.425,8.644,139.267,2.162,131.671,2.162z"/>
	<path fill="#FFFFFF" d="M16.497,2.162c-7.596,0-13.753,6.482-13.753,14.481v56.716c0,7.997,6.157,14.48,13.753,14.48h53.676V2.162
		H16.497z"/>
	<path fill="#DE2828" d="M38.086,66.666c0-3.163,2.801-5.481,5.844-5.481l6.338,0.002c2.523,0,4.567-2.044,4.567-4.57v-6.38
		c0-2.529-2.044-4.558-4.567-4.558l-6.766-0.002c-3.163,0-5.483-2.801-5.483-5.846l0.002-6.897c0-3.161,2.803-5.498,5.849-5.498
		l6.398,0.019c2.523,0,4.567-2.013,4.567-4.534v-6.336c0-2.528-2.044-4.57-4.567-4.57H43.93c-2.521,0-4.572,2.042-4.572,4.57v6.4
		c0,3.043-2.337,5.843-5.495,5.843h-6.733c-2.521,0-4.574,2.032-4.574,4.556v6.382c0,2.522,2.053,4.569,4.574,4.569h6.44
		c3.046,0,5.847,2.337,5.847,5.498l0.003,6.882c0,3.046-2.335,5.833-5.496,5.795h-6.794c-2.521,0-4.574,2.04-4.574,4.565v6.335
		c0,2.53,2.053,4.574,4.574,4.574h6.378c2.528,0,4.574-2.044,4.574-4.574L38.086,66.666z"/>
	<g>
		<rect x="84.954" y="20.016" fill="#FFFFFF" width="9.433" height="49.968"/>
		<path fill="#FFFFFF" d="M119.686,20.016c-5.986,0-16.018,0-16.018,0v49.968c0,0,11.078,0,17.366,0s10.93-4.457,10.93-10.127
			c0-5.675,0-21.879,0-28.362S125.676,20.016,119.686,20.016z M122.231,56.48c0,4.32-3.444,4.996-5.09,4.996s-3.893,0-3.893,0
			V28.388c0,0,2.097,0,4.192,0s4.79,0,4.79,4.322C122.231,37.032,122.231,52.158,122.231,56.48z"/>
	</g>
</g>
</svg>
